<svg xmlns="http://www.w3.org/2000/svg" width="24" height="24" viewBox="0 0 24 24">
    <path fill="#32353A" stroke="#32353A" stroke-width=".5" d="M18.912 5.156H17.2V3.6c0-.331-.269-.6-.6-.6-.331 0-.6.269-.6.6v1.556H8V3.6c0-.331-.269-.6-.6-.6-.331 0-.6.269-.6.6v1.556H5.088C3.935 5.156 3 6.09 3 7.243v11.67c.001 1.152.935 2.086 2.088 2.087h13.824c1.153-.001 2.087-.935 2.088-2.088V7.243c-.001-1.152-.935-2.086-2.088-2.087zm.888 13.756c0 .49-.398.887-.888.888H5.088c-.49 0-.887-.398-.888-.888V11h15.6v7.912zm0-9.112H4.2V7.243c0-.49.398-.887.888-.887H6.8V7.91c0 .331.269.6.6.6.331 0 .6-.269.6-.6V6.356h8V7.91c0 .331.269.6.6.6.331 0 .6-.269.6-.6V6.356h1.712c.49 0 .887.397.888.887V9.8z"/>
</svg>
