<svg xmlns="http://www.w3.org/2000/svg" width="24" height="24" viewBox="0 0 24 24">
    <path fill="#32353A" stroke="#32353A" stroke-width=".6" d="M5.842 3C4.27 3 3 4.27 3 5.842v8.526c0 1.573 1.27 2.843 2.842 2.843h4.349l3.505 3.514c.17.17.407.275.672.275.521 0 .948-.426.948-.947V17.21h2.842c1.573 0 2.842-1.27 2.842-2.843V5.842C21 4.27 19.73 3 18.158 3H5.842zm12.316.947c1.042 0 1.895.853 1.895 1.895v8.526c0 1.043-.853 1.895-1.895 1.895h-3.79v3.79l-3.79-3.79H5.843c-1.042 0-1.895-.852-1.895-1.895V5.842c0-1.042.853-1.895 1.895-1.895h12.316zM5.684 8.5c0 .262.212.474.474.474h11.368c.262 0 .474-.212.474-.474s-.212-.474-.474-.474H6.158c-.262 0-.474.212-.474.474zm6.842 3.5H5.895c-.262 0-.474.212-.474.474 0 .261.212.473.474.473h6.631c.262 0 .474-.212.474-.473 0-.262-.212-.474-.474-.474z"/>
</svg>
