<svg xmlns="http://www.w3.org/2000/svg" width="24" height="24" viewBox="0 0 24 24">
    <path fill="#C00000" stroke="#C00000" stroke-width=".4" d="M11.722 4.004c.41 0 .713.335.731.732.019.394-.349.73-.73.73h0-3.905c-.223 0-.446-.003-.667.026l.094-.009-.083.015c-.12.025-.239.057-.355.097l-.065.024-.148.071c-.07.038-.14.078-.206.121L6.26 5.9l-.103.088c-.059.054-.115.11-.169.169l-.09.105.051-.071h0l-.115.148.063-.075-.085.123c-.044.067-.084.136-.121.207l-.073.152-.023.062c-.04.116-.072.234-.097.354l-.017.095-.008.083h0l-.006.19c-.002.332 0 .665 0 .997h0v7.16c0 .383-.024.782.025 1.164l-.008-.09.014.079c.025.12.057.239.097.355l.022.059.073.153c.037.07.078.14.121.207l.086.122.091.109c.054.058.11.115.169.168l.103.088.127.089c.067.043.136.083.207.12l.15.072.064.025c.116.04.234.072.354.096l.102.017.076.008h0l.191.007c.33.002.664 0 .997 0h7.16c.384 0 .783.024 1.165-.026l-.096.008.085-.014c.12-.024.239-.057.355-.096l.065-.026.148-.07c.07-.037.139-.077.206-.12l.121-.086.11-.092c.058-.053.115-.11.169-.168l.09-.109.086-.121c.043-.067.083-.136.12-.207l.071-.148.026-.066c.04-.116.072-.234.097-.355l.012-.075.015-.166c.004-.084.005-.169.005-.253V12.28c0-.41.334-.713.73-.73.396-.018.732.35.732.731h0v4.169c0 .55-.128 1.071-.358 1.568-.27.58-.726 1.066-1.257 1.417-.545.362-1.208.55-1.861.563h0H7.53c-1.249-.005-2.438-.682-3.061-1.768-.307-.534-.468-1.146-.47-1.76h0V7.527c.005-1.3.752-2.565 1.931-3.139.506-.248 1.05-.384 1.616-.384h0zm7.547-.003c.177-.009.342.06.47.174l.047.04c.112.102.178.24.201.384.008.044.013.088.013.133h0V8.79c0 .409-.335.713-.731.73-.395.02-.732-.348-.732-.73h0V6.497l-2.504 2.504h0l-1.045 1.045h0l-2.456 2.456c-.289.289-.742.267-1.035 0-.29-.267-.27-.764 0-1.035l.013-.013c.289-.296.587-.587.88-.88l1.813-1.813 2.092-2.091 1.73-1.73-.523.523h-2.293c-.375 0-.662-.28-.72-.633l-.011-.098c-.019-.395.349-.731.731-.731h0z"/>
</svg>
