<svg xmlns="http://www.w3.org/2000/svg" width="24" height="24" viewBox="0 0 24 24">
    <path fill="#32353A" stroke="#32353A" stroke-width=".4" d="M20.75 6.077h-5V3.615c0-.34-.28-.615-.625-.615h-6.25c-.345 0-.625.276-.625.615v2.462h-5c-.69 0-1.25.551-1.25 1.23V19.77C2 20.45 2.56 21 3.25 21h17.5c.69 0 1.25-.551 1.25-1.23V7.307c0-.68-.56-1.231-1.25-1.231zM9.5 4.23h5v1.846h-5V4.23zM3.25 7.308h17.5v2.769h0c0 1.36-1.12 2.461-2.5 2.461h-4.375v-.615c0-.68-.56-1.23-1.25-1.23h-1.25c-.69 0-1.25.55-1.25 1.23v.615H5.75c-1.38 0-2.5-1.102-2.5-2.461v-2.77zm9.375 7.077h-1.25v-2.462h1.25v1.23h0v1.232zM3.25 19.769v-6.947c.686.608 1.577.945 2.5.947h4.375v.616c0 .68.56 1.23 1.25 1.23h1.25c.69 0 1.25-.55 1.25-1.23v-.616h4.375c.924 0 1.815-.337 2.5-.947v6.947H3.25z"/>
</svg>
