<svg xmlns="http://www.w3.org/2000/svg" width="96" height="96" viewBox="0 0 96 96">
    <g fill="none" fill-rule="evenodd">
        <path fill="#FFF" fill-rule="nonzero" d="M84.718 6C90.94 6.018 95.982 11.054 96 17.272v44.006c-.017 6.218-5.058 11.256-11.282 11.274H60.149L49.603 88.954a1.948 1.948 0 0 1-3.276 0L35.773 72.552H11.275C5.053 72.529.017 67.493 0 61.278V17.272C.018 11.057 5.054 6.022 11.275 6h73.443zM74.513 45.76l-.04-.048L51.23 21.507a4.529 4.529 0 0 0-6.468 0L21.525 45.712l-7.494 7.806a2.79 2.79 0 0 0-.013 3.822l.013-.014c.485.506 1.143.79 1.83.79.685 0 1.343-.284 1.828-.79L37.196 37.01l7.502-7.814a4.537 4.537 0 0 1 6.6 0l7.496 7.808 19.518 20.333a2.514 2.514 0 0 0 3.657 0l.013.014a2.79 2.79 0 0 0-.013-3.822l-7.456-7.768zm-8.516 5.498l-15.48-15.315a3.61 3.61 0 0 0-5.094 0L29.994 51.246c-.93 1.106.319 2.168 1.17 1.7 1.85-1.01 3.423-2.461 5.382-3.487 2.174-1.139 5.157-.416 6.894 1.314l.7.697a5.469 5.469 0 0 0 3.859 1.591 5.469 5.469 0 0 0 3.859-1.591l.715-.713c1.74-1.732 4.73-2.45 6.895-1.308 1.888.993 3.84 2.715 5.357 3.51.866.45 2.12-.688 1.172-1.701z"/>
    </g>
</svg>
